<svg width="261" height="261" viewBox="0 0 261 261" fill="none" xmlns="http://www.w3.org/2000/svg">
<circle cx="130.325" cy="130.325" r="128.696" fill="#FDA800" stroke="#EDF5F4" stroke-width="3.25813"/>
<path d="M47.791 132.121C47.791 132.121 50.8767 135.963 54.3143 142.091C63.4098 140.253 80.7278 140.828 97.8678 142.127C98.7114 142.191 99.4234 142.778 99.6527 143.593C99.6565 143.606 99.6604 143.62 99.6642 143.634C100.042 144.978 98.965 146.29 97.5722 146.184C87.1424 145.391 78.2242 144.99 70.9423 144.99C64.7518 144.99 59.8393 145.282 56.3134 145.861C60.4357 154.118 64.3137 165.185 63.3538 176.441C63.2556 177.614 64.1653 178.624 65.3407 178.624H196.912C194.157 176.199 191.246 173.965 188.22 171.959C186.954 171.119 185.776 170.394 184.723 169.8C181.465 167.963 178.158 166.233 174.807 164.611C173.494 163.976 173.272 162.206 174.384 161.263C174.396 161.253 174.408 161.243 174.419 161.234C175.023 160.725 175.874 160.616 176.585 160.96C180.014 162.615 183.393 164.38 186.719 166.255C187.935 166.939 189.199 167.727 190.468 168.567C194.928 171.524 199.086 174.897 202.902 178.624H212.413C213.389 178.624 213.942 177.506 213.354 176.728L211.57 174.38C205.686 166.626 198.581 159.87 190.468 154.496C189.2 153.653 187.936 152.868 186.72 152.184C164.528 139.668 139.927 132.039 114.573 129.526C85.8894 126.682 47.791 124.365 47.791 132.121ZM148.958 150.307C150.196 147.894 152.712 146.24 155.606 146.24C159.723 146.24 163.073 149.589 163.073 153.706C163.073 154.168 163.03 154.618 162.951 155.057C162.697 156.443 162.057 157.695 161.153 158.702C159.786 160.22 157.806 161.175 155.606 161.175C151.682 161.175 148.456 158.133 148.159 154.286C148.145 154.094 148.137 153.9 148.137 153.706C148.137 152.483 148.434 151.327 148.958 150.307ZM129.118 145.617C130.19 142.807 132.915 140.808 136.096 140.808C140.213 140.808 143.562 144.157 143.562 148.275C143.562 148.449 143.556 148.624 143.543 148.797C143.445 150.216 142.95 151.528 142.164 152.62C140.807 154.508 138.593 155.741 136.096 155.741C132.46 155.741 129.419 153.127 128.761 149.68C128.672 149.225 128.627 148.756 128.627 148.275C128.627 147.339 128.799 146.443 129.118 145.617ZM109.12 147.164C109.148 145.699 109.601 144.334 110.362 143.193C111.7 141.177 113.991 139.846 116.586 139.846C119.789 139.846 122.53 141.876 123.585 144.715C123.887 145.527 124.052 146.4 124.052 147.315C124.052 147.849 123.997 148.368 123.887 148.871C123.172 152.244 120.17 154.781 116.586 154.781C112.469 154.781 109.117 151.432 109.117 147.315C109.117 147.264 109.117 147.214 109.12 147.164Z" fill="#EDF5F4"/>
<path d="M134.772 97.2549L128.177 106.754L113.455 107.089C112.169 107.118 110.998 107.831 110.381 108.956L102.685 122.979C102.345 123.595 102.751 124.356 103.453 124.416C107.13 124.727 110.975 125.079 114.977 125.476C127.925 126.759 140.735 129.364 153.049 133.22C161.957 136.007 170.642 139.459 178.989 143.531C179.693 143.873 180.492 143.279 180.37 142.504L175.544 111.853L194.298 108.829C195.272 108.671 196.074 107.984 196.381 107.048L198.825 99.5746C199.38 97.8725 198.114 96.125 196.323 96.125H136.934C136.072 96.125 135.263 96.5463 134.772 97.2549ZM138.028 113.361L139.39 122.01C139.497 122.685 138.889 123.255 138.222 123.109C130.762 121.478 123.19 120.274 115.568 119.52C114.737 119.439 113.909 119.357 113.088 119.278C112.392 119.211 111.994 118.455 112.329 117.845L114.695 113.531C114.862 113.227 115.178 113.035 115.525 113.028L126.951 112.77L137.046 112.54C137.532 112.528 137.951 112.88 138.028 113.361Z" fill="#EDF5F4"/>
<path d="M188.719 148.638C191.912 150.438 194.739 152.157 197.217 153.806L194.117 134.117L193.638 131.074C193.358 129.293 191.804 127.995 190.002 128.036L182.238 128.213L184.388 141.873C184.606 143.254 184.244 144.652 183.392 145.748C185.185 146.684 186.962 147.646 188.719 148.638Z" fill="#EDF5F4"/>
<path d="M158.731 87.4784L164.354 86.5711C164.646 86.5256 164.885 86.3197 164.979 86.0373L165.711 83.7966C165.876 83.2867 165.498 82.7627 164.96 82.7627H147.154C146.895 82.7627 146.651 82.8893 146.505 83.1026L144.528 85.9489L144.013 86.691C143.948 86.782 143.908 86.8778 143.889 86.9759C143.608 88.2518 143.302 89.523 142.733 90.6984L142.074 92.0557H154.129L155.99 87.9215L158.731 87.4784Z" fill="#EDF5F4"/>
<path d="M187.297 87.4784L192.92 86.5711C193.212 86.5256 193.451 86.3197 193.545 86.0373L194.277 83.7966C194.445 83.2867 194.064 82.7627 193.528 82.7627H175.72C175.461 82.7627 175.22 82.8893 175.071 83.1026L173.094 85.9489L172.579 86.691C172.517 86.782 172.476 86.8778 172.454 86.9759C172.177 88.2518 171.871 89.523 171.301 90.6984L170.643 92.0557H182.696L184.558 87.9215L187.297 87.4784Z" fill="#EDF5F4"/>
<path d="M116.587 150.71C118.116 150.71 119.414 149.693 119.838 148.297C119.933 147.986 119.983 147.656 119.983 147.313C119.983 145.439 118.459 143.914 116.587 143.914C114.712 143.914 113.188 145.439 113.188 147.313C113.188 147.395 113.19 147.474 113.197 147.553C113.319 149.315 114.794 150.71 116.587 150.71Z" fill="#EDF5F4"/>
<path d="M136.097 151.67C136.535 151.67 136.954 151.586 137.337 151.435C138.598 150.94 139.493 149.709 139.493 148.273C139.493 148.103 139.481 147.933 139.458 147.77C139.213 146.133 137.799 144.876 136.097 144.876C134.912 144.876 133.868 145.484 133.26 146.406C132.903 146.942 132.697 147.581 132.697 148.273C132.697 149.187 133.059 150.016 133.648 150.626C134.265 151.27 135.137 151.67 136.097 151.67Z" fill="#EDF5F4"/>
<path d="M155.606 157.105C155.913 157.105 156.207 157.064 156.49 156.987C157.936 156.597 159.003 155.273 159.003 153.705C159.003 153.665 159.003 153.624 159.001 153.583C158.936 151.766 157.438 150.309 155.606 150.309C154.553 150.309 153.61 150.79 152.985 151.544C152.499 152.13 152.207 152.884 152.207 153.705C152.207 154.479 152.466 155.194 152.906 155.767C153.526 156.578 154.505 157.105 155.606 157.105Z" fill="#EDF5F4"/>
</svg>
